# xmcd CD database file
#
# Track frame offsets:
#	150
#	15982
#	29982
#	44132
#	58582
#	77982
#	91832
#	108757
#	125957
#
# Disc length: 1865 seconds
#
# Revision: 0
# Processed by: cddbd v1.5.2PL0 Copyright (c) Steve Scherf et al.
# Submitted via: CDex 1.70beta2
#
DISCID=79074709
DTITLE=Stones Throe - As the Crow Flies
DYEAR=2008
DGENRE=Blues
TTITLE0=Broken Sky
TTITLE1=Close to Sin
TTITLE2=Show Me the Way
TTITLE3=Wish You Were Mine
TTITLE4=Heart to Need
TTITLE5=Whisper
TTITLE6=Off the Wall
TTITLE7=Why
TTITLE8=Better Days
EXTD=YEAR: 2008
EXTT0=
EXTT1=
EXTT2=
EXTT3=
EXTT4=
EXTT5=
EXTT6=
EXTT7=
EXTT8=
PLAYORDER=
